<?xml version="1.0" encoding="utf-8"?>
<!-- Generator: Adobe Illustrator 22.1.0, SVG Export Plug-In . SVG Version: 6.00 Build 0)  -->
<svg version="1.1" id="Layer_1" xmlns="http://www.w3.org/2000/svg" xmlns:xlink="http://www.w3.org/1999/xlink" x="0px" y="0px"
	 viewBox="0 0 17.3 20" style="enable-background:new 0 0 17.3 20;" xml:space="preserve">
<style type="text/css">
	.st0{fill:#2684FF;}
	.st1{fill:url(#SVGID_1_);}
	.st2{fill:url(#SVGID_2_);}
</style>
<g>
	<path class="st0" d="M16.8,11.2l-4.2,0.1c-0.3,0-0.5,0.2-0.6,0.5c-0.2,1.7-1.6,3-3.4,3l1.3,5.1c4.1-0.6,7.2-4,7.4-8.1
		C17.3,11.4,17.1,11.2,16.8,11.2L16.8,11.2z"/>
	<path class="st0" d="M9.6,11.2l5.9-5.3c0.2-0.2,0.3-0.6,0.1-0.8l-0.1-0.1l-6.1-5C9.1-0.1,8.7,0,8.6,0.2C8.5,0.3,8.5,0.4,8.5,0.6
		l0.2,10.3c0,0.3,0.3,0.6,0.6,0.6C9.3,11.3,9.5,11.3,9.6,11.2z"/>
	
		<linearGradient id="SVGID_1_" gradientUnits="userSpaceOnUse" x1="-9.3567" y1="1324.7808" x2="-9.3567" y2="1336.5736" gradientTransform="matrix(0.9998 -2.072367e-02 2.072367e-02 0.9998 -13.8915 -1321.7518)">
		<stop  offset="0" style="stop-color:#0052CC"/>
		<stop  offset="1" style="stop-color:#2684FF"/>
	</linearGradient>
	<path class="st1" d="M0.1,12.6c0.7,4.3,4.4,7.5,8.8,7.4l-0.1-5.2c-1.9,0.1-3.5-1.5-3.5-3.4L0.1,12.6z"/>
	
		<linearGradient id="SVGID_2_" gradientUnits="userSpaceOnUse" x1="-9.3993" y1="1324.7808" x2="-9.3993" y2="1336.5736" gradientTransform="matrix(0.9998 -2.072367e-02 2.072367e-02 0.9998 -13.8915 -1321.7518)">
		<stop  offset="0" style="stop-color:#0052CC"/>
		<stop  offset="1" style="stop-color:#2684FF"/>
	</linearGradient>
	<path class="st2" d="M0,11.4v0.1l5.3-0.1C5.2,9.5,6.7,8,8.6,7.9L7.4,2.8C3.1,3.5,0,7.1,0,11.4"/>
</g>
</svg>
